<svg id="Layer_2" data-name="Layer 2" xmlns="http://www.w3.org/2000/svg" viewBox="0 0 1080 1080">
  <defs>
    <style>
      .cls-1 {
        fill: #fd6466;
      }

      .cls-1, .cls-2, .cls-3 {
        fill-rule: evenodd;
      }

      .cls-2 {
        fill: #f41c2c;
      }
    </style>
  </defs>
  <path class="cls-3" d="M576.11,456.77h-165.8c-17.58,0-31.91,14.33-31.91,31.9v89.27c0,17.57,14.33,31.9,31.91,31.9h165.8c17.57,0,31.91-14.33,31.91-31.9v-89.27c0-17.57-14.34-31.9-31.91-31.9"/>
  <path class="cls-2" d="M735.58,609.85v76.53c0,28.1-22.93,51.04-51.04,51.04h-102.04l153.07,153.07v-102.04c0-28.11,22.93-51.04,51.04-51.04h70.13c17.57,0,31.91-14.33,31.91-31.91v-344.39c0-17.58-14.34-31.91-31.91-31.91h-70.13c-28.1,0-51.04-22.93-51.04-51.04v-70.13c0-17.57-14.34-31.9-31.9-31.9h-420.93c-17.57,0-31.9,14.34-31.9,31.9v89.27c0,17.57,14.33,31.9,31.9,31.9h401.79c28.11,0,51.04,22.93,51.04,51.04v229.6Z"/>
  <path class="cls-1" d="M378.4,737.41h25.51l153.07,153.07h-146.68c-17.57,0-31.91-14.33-31.91-31.9v-121.17Z"/>
</svg>
