<svg id="Layer_2" data-name="Layer 2" xmlns="http://www.w3.org/2000/svg" viewBox="0 0 232 734">
  <defs>
    <style>
      .cls-1 {
        fill: #f41c2c;
      }
    </style>
  </defs>
  <path d="M180.71,711H42.08v-103.97l17.33-17.33h51.99l17.33,17.33v8.66l51.99-25.99v34.66l-69.31,34.66h-17.33v-34.66h-17.33v51.99h103.97v34.66Z"/>
  <path d="M180.71,556.94l-17.33,17.33H42.08v-34.66h103.97v-51.99H42.08v-34.66h103.97l34.66,17.33v86.64Z"/>
  <path class="cls-1" d="M180.71,437.53H42.08v-103.97l17.33-17.33h34.66l17.33,8.66,17.33-8.66h34.66l17.33,17.33v103.97ZM94.06,350.89h-17.33v51.99h17.33v-51.99ZM146.05,350.89h-17.33v51.99h17.33v-51.99Z"/>
  <path class="cls-1" d="M180.71,300.8H42.08v-103.97h34.66v69.31h17.33v-69.31h34.66v69.31h17.33v-69.31l34.66-34.66v138.63Z"/>
  <path class="cls-1" d="M180.71,146.73H42.08v-34.66h51.99v-17.33l-51.99-25.99v-34.66l69.31,34.66,69.31-34.66v34.66l-51.99,25.99v17.33h51.99v34.66Z"/>
</svg>
